<?xml version="1.0" encoding="UTF-8"?>
<svg id="OBJECTS" xmlns="http://www.w3.org/2000/svg" viewBox="0 0 950 810">
  <defs>
    <style>
      .cls-1 {
        fill: #f1c30e;
      }

      .cls-2 {
        fill: #149c54;
      }
    </style>
  </defs>
  <path class="cls-2" d="m618.88,613.74c-3.47,3.08-7.14,6.14-11.01,9.19-16.21,12.77-31.56,23.57-45.64,32.72-18.75,12.27-38.3,23.25-58.54,32.87-9.54,4.62-19.36,8.61-29.42,11.94-9.95-3.29-19.67-7.23-29.09-11.8-20.25-9.55-39.81-20.49-58.55-32.74-14.2-9.23-29.67-20.1-46.04-32.99-3.87-3.04-7.54-6.11-11.01-9.18,7.86-10.98,16.87-21.09,26.87-30.16,10.57,8.39,20.67,15.88,30.18,22.55,18.64,13.19,38.2,25.01,58.54,35.39,9.39,4.9,19.11,9.15,29.09,12.73,10.1-3.62,19.93-7.93,29.43-12.91,20.34-10.4,39.9-22.27,58.52-35.5,9.39-6.58,19.37-13.99,29.78-22.27,10.01,9.07,19.02,19.18,26.88,30.16v.02Z"/>
  <path class="cls-2" d="m795.89,67.22v374.06c0,6.51-.75,12.99-2.21,19.33-4.75,20.48-16.71,38.58-33.7,50.98-6.81,5.07-14.35,9.09-22.36,11.92-2.76.99-5.58,1.85-8.43,2.56-2.48.59-4.96,1.1-7.52,1.5-1.1.16-2.2.31-3.35.43-3.29.39-6.61.59-9.93.59h-.07c-4.41,0-8.81-.35-13.16-1.03-5.31-.78-10.53-2.06-15.59-3.85-4.24-1.48-8.36-3.3-12.31-5.44-1.65-.87-3.27-1.81-4.84-2.79-5.93,8.01-13.16,14.98-21.38,20.61-4.46,3.06-9.21,5.68-14.17,7.84-1.85.83-3.74,1.58-5.67,2.25-9.34,3.35-19.18,5.06-29.1,5.07h-.29c-5.16,0-10.32-.48-15.39-1.41-2.35-.39-4.67-.9-6.96-1.53-2.24,1.89-4.49,3.66-6.65,5.39-18.28,14.63-37.84,27.59-58.43,38.73-9.4,5.25-19.22,9.69-29.36,13.29-10.02-3.56-19.72-7.95-29.01-13.12-13.23-7.03-26-14.89-38.23-23.53-6.42-4.52-13.15-9.52-20.2-15.11-1.73-1.34-3.5-2.71-5.28-4.21-7.42,2.11-15.08,3.24-22.8,3.35-.33.03-.66.04-.98.04h-.27c-9.9,0-19.73-1.71-29.06-5.04v-1.38c0,.47,0,.9-.04,1.38-.15,11-2.41,21.87-6.65,32.02-7.86,18.75-21.95,34.22-39.88,43.82-3.8,2.05-7.75,3.81-11.82,5.25-9.35,3.3-19.2,4.99-29.11,4.99h-.02c-6.92,0-13.82-.82-20.55-2.44-2.9-.7-5.77-1.55-8.59-2.55-.06-.06-.11-.13-.15-.2v.12c-2.36-.83-4.65-1.77-6.89-2.79,1.65.16,3.31.24,5,.24h.19s0-.03,0-.03c.59,0,1.14,0,1.69-.04,2.46-.05,4.91-.28,7.33-.68,8.28-1.26,16.2-4.23,23.26-8.72,7.06-4.49,13.11-10.4,17.76-17.36,5.98-8.85,9.47-19.15,10.08-29.82.08-1.18.12-2.36.12-3.58V48.03c0-2.18-.79-4.3-2.22-5.94-1.43-1.65-3.41-2.72-5.57-3.03l-22.25-3.15-.35-2.12c0-.55,68.86-17.23,88.67-20.81l-.16,518.98c0,1.15.23,2.3.67,3.36.44,1.06,1.09,2.03,1.9,2.84s1.78,1.46,2.84,1.9c1.06.44,2.2.67,3.35.67h8.32c16.14,0,41.46-13.05,41.46-29.22V199.8c19.32-2.97,38.77-4.95,58.29-5.91l.04,363.66c0,.46.03.92.11,1.38,0,.31.07.62.2.91.07.37.19.73.35,1.06.13.35.29.69.47,1.02.24.44.53.84.86,1.22.13.19.28.38.43.55.2.16.39.35.59.51.04.04.08.04.12.12l.04.08c.3.26.63.48.99.67.35.19,0,.04.04,0,.86.52,1.81.88,2.79,1.06.49.13.99.2,1.5.2h.15s5.19,0,5.19,0c2.01,0,44.53-1.63,44.53-35.21l.12-337.18c19.47.93,38.88,2.88,58.15,5.83l.16,332.15v.04c0,1.15.22,2.29.66,3.35.44,1.06,1.09,2.03,1.9,2.84s1.78,1.46,2.84,1.9c1.06.44,2.2.67,3.35.67h6.4c16.14,0,43.39-13.05,43.39-29.22l-.04-299.26c19.71,5.3,39.08,11.78,58.01,19.41v266.31c-.01,1.7.32,3.37.97,4.94.65,1.57,1.6,2.99,2.8,4.19,1.2,1.2,2.62,2.15,4.19,2.8,1.57.65,3.25.98,4.94.98h5.95c16.14,0,39.68-13.1,39.68-29.27V218.02c0-.75-.04-1.5-.12-2.24V72.73c0-5.01-1.95-9.82-5.44-13.42l-20.39-21.04v-3.78s25.83,9.29,25.83,9.29c20.04,7.04,39.46,14.86,58.27,23.44Z"/>
  <path class="cls-2" d="m212.38,43.81v390.93c-.17,20.2-5.03,40.08-14.21,58.07-12.53,24.8-19.1,52.18-19.18,79.96,0,1.18,0,2.32.04,3.5-14.05-28-22.52-58.46-24.92-89.69V67.26c18.81-8.62,38.24-16.43,58.27-23.45Z"/>
  <path class="cls-2" d="m676.08,688.99v.04c-19.53,15.77-38.15,29.62-55.63,41.78-21.3,14.83-40.91,27.15-58.39,37.25-8.43,4.88-16.33,9.26-23.7,13.14h-.04c-12.24,6.53-64.06,28.8-64.06,28.8,0,0-51.81-22.27-64.1-28.8h-.04c-7.24-3.86-15.04-8.14-23.31-12.9-17.48-10.11-37.09-22.38-58.39-37.21-17.6-12.23-36.34-26.16-56.03-42.05v-.04c.2-1.18.43-2.4.71-3.66,3.81-18.02,10.37-35.35,19.45-51.38,3.27,2.91,6.65,5.82,10.16,8.7,3.86,3.15,7.68,6.22,11.42,9.16,4.84,3.82,9.61,7.52,14.29,11.02,2.52,1.93,5,3.78,7.48,5.59,18.35,13.5,35.43,24.82,50.91,34.35,18.87,11.62,38.39,22.14,58.46,31.53,9.43,4.49,19.11,8.42,28.99,11.78,10.01-3.41,19.81-7.41,29.35-11.97,20.1-9.36,39.62-19.92,58.45-31.62,15.43-9.48,32.52-20.81,50.83-34.3,2.48-1.85,5-3.7,7.56-5.63,4.25-3.23,8.58-6.53,12.95-9.99,4.06-3.19,8.18-6.49,12.36-9.91,3.5-2.87,6.89-5.78,10.16-8.7,9.72,17.11,16.52,35.71,20.14,55.04h0Z"/>
  <path class="cls-1" d="m621.63,51.37c-.05.24-.15.47-.28.68-.04.05-.07.11-.07.17v.03c-.64,1.1-1.37,2.14-2.17,3.13-1.79,1.98-3.77,3.78-5.92,5.37-1.79,1.32-3.68,2.5-5.64,3.53-2.79,1.5-5.64,2.79-8.5,4.15-1.77.81-3.54,1.7-5.24,2.51-.68.34-1.36.68-1.97,1.02-.2.14-.34.27-.34.48l-.2,1.22s-.07.11-.07.18v.03c0,.61-.2,1.22-.27,1.9-.07,0-.07.07,0,.14-.2,1.16-.41,2.38-.54,3.53-.14.68-.2,1.36-.34,2.11-.07,0-.07.07,0,.14-.12.49-.22.99-.27,1.49v.07c0,.12-.02.23-.07.34l-.05.1.05.1c-.2,1.15-.41,2.31-.54,3.53-.14.68-.2,1.36-.34,2.04l-.05.11.05.1c-.2,1.16-.41,2.38-.61,3.53-.07.68-.14,1.36-.27,2.04l-.05.1.05.1v.27c.14-.07.2-.07.34-.14.42-.13.83-.28,1.22-.47.63-.25,1.32-.3,1.97-.14l.2.2c.51.39.91.9,1.16,1.5.61,1.26,1.16,2.55,1.63,3.87.17.4.26.83.26,1.27,0,.19-.02.38-.05.57-.07,0-.07.07,0,.14-.27.59-.76,1.05-1.36,1.29-.54.27-1.09.54-1.7.82-1.29.54-2.52,1.09-3.81,1.63-.14.07-.34.14-.48.2-.19.07-.35.18-.47.34-.12.16-.19.34-.21.54v.1c0,.17-.02.34-.07.51-.07.75-.14,1.56-.2,2.38,0,.48-.05.96-.13,1.43-.07,1.02-.2,2.04-.27,2.99l-.2,1.43c-.07,1.22-.2,2.38-.27,3.53-.07.54-.07,1.09-.14,1.63-.07.68-.14,1.29-.2,1.97-.07.48-.07.95-.14,1.43-.07.95-.2,1.9-.27,2.85-.07.48-.07.88-.13,1.29-.07.48-.07.88-.14,1.36-.03.2-.12.39-.25.55-.13.16-.3.27-.5.34-.68.27-1.29.54-1.9.82-.4.19-.8.35-1.22.48-.06.03-.13.05-.19.05-.11,0-.21-.04-.28-.12-.13-.68-.34-1.36-.48-2.04-.75-3.47-1.5-6.86-2.24-10.33-.81-3.6-1.56-7.2-2.38-10.81-.75-3.33-1.49-6.73-2.24-10.13-.54-2.52-1.09-5.03-1.63-7.61-.33-1.61-.83-3.18-1.5-4.69-.61-1.49-1.22-2.99-1.83-4.42-.07-.2-.2-.41-.27-.61-.65.11-1.29.29-1.9.55-1.49.54-3.06,1.15-4.56,1.7-1.02.41-2.04.68-3.06,1.09-1.22.41-2.45.81-3.67,1.22-2.24.82-4.49,1.56-6.66,2.31-1.16.41-2.38.88-3.54,1.29-1.29.41-2.59.88-3.88,1.29-1.29.48-2.59.95-3.95,1.43-.07,0-.14.07-.27.14-.05.17-.07.34-.07.51v.1c-.13,1.02-.2,2.04-.27,3.06-.14,1.63-.2,3.33-.27,4.96-.06,1.02-.13,2.04-.2,3.06-.07,1.63-.14,3.26-.27,4.96,0,.81-.07,1.63-.14,2.45-.07,1.02-.2,2.11-.34,3.13-.01.19-.06.37-.14.54,0,.2-.2.27-.34.41-.46.15-.92.34-1.36.55-.95.41-1.9.88-2.86,1.29-.29.12-.58.21-.89.27-.2-.14-.2-.34-.27-.54-.27-1.15-.47-2.31-.68-3.47-.34-2.18-.75-4.35-1.15-6.46-.61-3.13-1.16-6.25-1.77-9.38-.14-.68-.27-1.29-.41-1.97-.02-.1-.06-.2-.14-.27q0-.14-.14-.07c-.62.06-1.23.15-1.84.27-2.38.41-4.76.82-7.14,1.09-1.01.14-2.04.21-3.06.21-.24.02-.48.03-.71.03s-.48-.01-.71-.03l.2-.41c.54-.61,1.15-1.15,1.7-1.7,1.65-1.54,3.37-2.99,5.17-4.35.95-.75,1.91-1.5,2.86-2.24l.34-.34c-1.09-1.56-2.18-3.06-3.33-4.55-1.09-1.49-2.24-2.99-3.33-4.49-1.16-1.56-2.31-3.06-3.47-4.55-1.09-1.49-2.25-2.92-3.4-4.42v-.07l.07-.07c1.77-.82,3.61-1.63,5.37-2.52.15.07.29.16.4.27.75.61,1.57,1.22,2.31,1.83.89.68,1.77,1.36,2.66,2.04,1.09.88,2.18,1.7,3.2,2.51.88.68,1.7,1.29,2.51,1.97.54.41,1.02.82,1.49,1.22.07,0,.14.07.2.07.22.24.47.45.75.61,1.02.82,2.04,1.63,3.06,2.38.41.34.81.68,1.29,1.02.07.14.2.2.34.34,4.83-2.72,9.66-5.37,14.55-8.02,4.83-2.65,9.72-5.23,14.55-7.88.04-.12.06-.25.05-.38-.01-.13-.05-.25-.11-.37-.34-.61-.61-1.29-.95-1.9-.54-1.16-1.15-2.31-1.63-3.47-.36-.84-.82-1.64-1.36-2.38-1.15-1.56-2.31-3.13-3.47-4.69-1.83-2.51-3.67-5.03-5.44-7.54-2.65-3.6-5.24-7.2-7.82-10.8-2.38-3.33-4.76-6.59-7.07-9.92-.27-.41-.54-.82-.81-1.29-.1-.12-.17-.26-.21-.41,1.29-.61,2.59-1.22,3.88-1.84.19.1.37.21.54.34.88.48,1.7,1.09,2.52,1.63.81.61,1.7,1.22,2.52,1.9.07,0,.07,0,.14.07.2.14.48.34.68.48l.14.14c.61.41,1.15.82,1.77,1.29.41.27.81.61,1.29.95.61.48,1.22.88,1.77,1.36.41.27.75.54,1.09.82.48.34.95.68,1.36,1.02.35.2.69.43,1.01.68.95.68,1.9,1.36,2.79,2.11.61.41,1.16.88,1.77,1.29.15.1.31.19.48.27.27-.14.54-.2.81-.34,1.63-.68,3.2-1.43,4.76-2.11l1.22-.41s.11-.07.17-.07h.03c.37-.13.76-.15,1.14-.06s.72.31.97.6c.42.52.79,1.09,1.09,1.7.57,1.14,1.05,2.32,1.43,3.54.12.28.18.59.18.9,0,.25-.04.49-.12.73-.04.05-.07.11-.07.18v.03c-.22.46-.61.83-1.09,1.02-.54.27-1.09.54-1.63.88.07.07.13.2.2.27.44.3.88.62,1.29.96.41.27.75.54,1.09.81.82.54,1.56,1.16,2.38,1.7.37.32.76.61,1.16.88l1.43,1.02c.48.41,1.02.82,1.49,1.16.54.41,1.09.75,1.56,1.16.41.27.75.54,1.16.81.81.68,1.7,1.36,2.52,1.97.03.04.08.06.13.07l3.47,2.65c.54-.2,1.09-.41,1.56-.61.28-.08.56-.2.82-.34,3.13-1.49,6.32-2.79,9.45-4.15,1.83-.75,3.61-1.43,5.44-2.11,2.62-.99,5.33-1.74,8.09-2.25,1.64-.31,3.31-.47,4.98-.48h.6c.21,0,.43,0,.64,0,1.55,0,3.09.19,4.6.56l.13.06c.83.2,1.61.55,2.31,1.02.36.26.66.59.87.98.21.39.33.82.35,1.26v.33c.01.59-.1,1.17-.33,1.71Zm-.34-38.25c-.13-.07-.27-.12-.41-.14-18.97-3.47-38.35-6.25-58.01-8.29-.07-.07-.14-.07-.27,0-19.11-2.11-38.48-3.49-58.14-4.15q-.07-.07-.14,0c-9.66-.41-19.45-.54-29.24-.54s-19.38.14-29.04.54h-.14c-19.65.61-39.08,1.97-58.28,4.08v143.78c.38-.08.77-.13,1.16-.14,34.68-61.7,118.87-49.4,118.87-49.4-103.64,32.41,171.64,64.89,171.64,64.89V25.89c-18.98-4.96-38.31-9.22-58.01-12.78Z"/>
  <path class="cls-2" d="m682.78,590.21c5.45,0,10.85,1.07,15.89,3.16,5.04,2.09,9.62,5.14,13.47,8.99,3.86,3.85,6.92,8.43,9,13.46,2.09,5.03,3.16,10.43,3.16,15.88,0-11,4.38-21.56,12.16-29.34,7.79-7.78,18.35-12.15,29.36-12.15-11.01,0-21.58-4.37-29.36-12.15-7.79-7.78-12.16-18.34-12.16-29.34,0,5.45-1.07,10.84-3.16,15.88-2.09,5.03-5.15,9.61-9,13.46-3.86,3.85-8.43,6.91-13.47,9-5.04,2.09-10.44,3.16-15.89,3.16Z"/>
  <path class="cls-2" d="m622.42,571.61h0c7.13.15,13.94,3,19.02,8,5.09,4.99,8.07,11.74,8.34,18.86h.04c.27-7.12,3.25-13.87,8.34-18.86,5.09-4.99,11.9-7.85,19.02-7.98h0c-7.31-.15-14.27-3.15-19.39-8.36-5.12-5.21-7.99-12.23-7.99-19.53,0,7.31-2.87,14.32-7.99,19.53-5.12,5.21-12.08,8.21-19.39,8.35Z"/>
  <path class="cls-2" d="m199.37,564.19h0c7.13.15,13.94,3,19.02,8,5.09,4.99,8.07,11.74,8.34,18.86h.04c.27-7.12,3.25-13.87,8.34-18.86,5.09-4.99,11.9-7.85,19.02-7.98h0c-7.31-.15-14.27-3.15-19.39-8.36-5.12-5.21-7.99-12.23-7.99-19.53,0,7.31-2.87,14.32-7.99,19.53-5.12,5.21-12.08,8.21-19.39,8.35Z"/>
</svg>